<svg xmlns="http://www.w3.org/2000/svg" width="1680" height="307" viewBox="0 0 1680 307" role="img" aria-label="MedBook AI logo_tagline"><path fill="#203D34" fill-rule="evenodd" d="M1571,272 L1573,273 L1573,275 L1575,278 L1574,279 L1569,279 L1568,278 Z M1444,271 L1447,277 L1446,279 L1442,279 L1441,278 Z M934,271 L936,273 L936,276 L937,277 L936,279 L932,279 L931,278 Z M824,271 L827,277 L826,279 L822,279 L821,278 L822,274 Z M1629,269 L1633,269 L1637,273 L1637,280 L1633,284 L1627,283 L1624,280 L1624,273 Z M1514,269 L1518,269 L1522,273 L1523,276 L1522,280 L1518,284 L1514,284 L1512,283 L1509,279 L1509,273 Z M1083,269 L1087,269 L1091,272 L1092,275 L1091,281 L1087,284 L1083,284 L1081,283 L1078,279 L1078,275 L1080,271 Z M1057,270 L1058,269 L1062,269 L1064,271 L1064,275 L1063,276 L1058,276 L1057,275 Z M954,270 L955,269 L960,270 L961,271 L961,274 L959,276 L955,276 L954,275 Z M600,270 L601,269 L605,269 L607,271 L607,275 L604,277 L601,277 L600,276 Z M1650,268 L1650,285 L1652,286 L1652,273 L1653,272 L1658,278 L1660,282 L1665,286 L1665,268 L1663,268 L1663,280 L1662,281 L1653,268 Z M1609,268 L1609,285 L1611,285 L1611,268 Z M1586,268 L1586,269 L1591,269 L1592,270 L1592,285 L1594,285 L1594,270 L1600,268 Z M1573,268 L1570,269 L1566,278 L1566,280 L1564,283 L1564,286 L1566,285 L1566,283 L1568,281 L1575,281 L1577,283 L1577,285 L1579,285 L1578,280 L1573,270 Z M1536,268 L1536,272 L1535,273 L1535,285 L1537,286 L1537,274 L1538,273 L1541,278 L1543,284 L1545,285 L1551,272 L1552,273 L1552,285 L1554,286 L1554,268 L1551,268 L1550,269 L1547,278 L1545,281 L1543,280 L1543,278 L1540,273 L1539,269 Z M1485,268 L1485,269 L1489,269 L1491,272 L1491,286 L1493,285 L1493,270 L1494,269 L1498,269 L1498,268 Z M1443,268 L1436,284 L1436,286 L1439,284 L1440,281 L1448,281 L1449,284 L1452,286 L1447,271 L1445,268 Z M1400,268 L1400,269 L1405,269 L1406,270 L1406,285 L1407,285 L1408,270 L1409,269 L1413,269 L1413,268 Z M1376,268 L1376,285 L1378,285 L1378,274 L1379,273 L1385,280 L1387,284 L1390,285 L1390,268 L1388,268 L1388,279 L1387,280 L1378,268 Z M1355,268 L1355,286 L1365,285 L1365,284 L1358,284 L1357,283 L1357,278 L1358,277 L1364,277 L1364,275 L1362,276 L1358,276 L1357,275 L1357,270 L1358,269 L1365,269 L1365,268 Z M1316,268 L1316,285 L1318,285 L1318,268 Z M1276,268 L1276,286 L1279,285 L1286,285 L1286,284 L1279,284 L1278,283 L1278,272 L1277,271 L1277,268 Z M1255,268 L1255,285 L1265,285 L1265,284 L1258,284 L1256,282 L1257,280 L1256,279 L1258,277 L1264,277 L1264,275 L1260,275 L1259,276 L1257,274 L1256,271 L1258,269 L1265,269 L1265,268 Z M1231,268 L1231,269 L1236,269 L1237,270 L1237,285 L1239,285 L1239,270 L1240,269 L1245,269 L1245,268 Z M1194,268 L1194,285 L1196,286 L1196,268 Z M1154,268 L1154,285 L1156,285 L1156,278 L1157,277 L1165,277 L1166,278 L1166,285 L1168,285 L1168,268 L1166,268 L1166,274 L1165,275 L1157,275 L1156,274 L1156,268 Z M1104,268 L1104,282 L1109,286 L1113,286 L1117,283 L1117,280 L1118,279 L1118,269 L1116,268 L1116,279 L1115,282 L1113,284 L1109,284 L1106,281 L1106,268 Z M1055,268 L1055,285 L1057,286 L1057,279 L1060,278 L1063,281 L1064,284 L1067,286 L1067,284 L1063,279 L1066,275 L1066,270 L1064,268 Z M1008,268 L1008,269 L1012,269 L1013,270 L1013,285 L1015,285 L1015,270 L1016,269 L1021,269 L1021,268 Z M974,268 L974,285 L984,285 L984,284 L977,284 L976,283 L976,278 L977,277 L983,277 L983,275 L978,275 L977,276 L976,275 L976,270 L977,269 L984,269 L984,268 Z M952,268 L952,285 L953,286 L954,285 L954,279 L956,278 L960,282 L961,285 L964,286 L959,278 L962,276 L963,274 L962,269 L961,268 Z M933,268 L926,286 L928,286 L929,283 L931,281 L938,281 L939,284 L942,286 L937,271 L935,268 Z M857,268 L857,269 L861,269 L863,272 L862,285 L864,285 L864,271 L866,269 L870,269 L870,268 Z M841,268 L841,285 L851,285 L851,284 L844,284 L843,283 L843,268 Z M823,268 L816,285 L818,285 L820,281 L828,281 L829,284 L832,286 L830,279 L826,271 L826,269 Z M797,268 L797,285 L807,285 L807,284 L800,284 L799,283 L799,278 L800,277 L806,277 L806,276 L803,275 L800,276 L799,275 L799,270 L800,269 L807,269 L807,268 Z M693,268 L694,271 L694,282 L693,285 L695,285 L695,268 Z M662,268 L652,268 L652,285 L654,285 L654,278 L655,277 L661,277 L661,276 L655,276 L654,275 L654,270 L655,269 L662,269 Z M607,268 L598,268 L598,285 L600,286 L600,279 L601,278 L606,278 L609,275 L609,270 Z M569,268 L569,282 L568,285 L570,286 L570,279 L572,274 L576,282 L576,284 L578,285 L584,273 L585,274 L585,285 L587,286 L587,268 L584,268 L583,269 L581,276 L579,278 L578,281 L576,279 L576,277 L573,272 L572,268 Z M558,268 L556,268 L556,285 L557,286 L558,285 Z M1626,268 L1622,273 L1622,281 L1626,285 L1634,286 L1639,281 L1640,278 L1639,272 L1633,267 Z M1511,268 L1507,272 L1507,281 L1511,285 L1518,286 L1524,281 L1525,278 L1524,272 L1518,267 Z M1475,267 L1473,268 L1473,281 L1470,284 L1466,284 L1463,280 L1463,268 L1461,268 L1461,281 L1464,285 L1466,286 L1471,286 L1475,282 Z M1336,267 L1331,269 L1328,273 L1328,280 L1331,284 L1335,286 L1340,286 L1344,283 L1344,277 L1338,277 L1338,278 L1341,278 L1342,279 L1342,282 L1340,284 L1335,284 L1333,283 L1330,279 L1330,274 L1333,270 L1339,269 L1343,271 L1343,269 L1339,267 Z M1297,267 L1296,268 L1296,285 L1306,285 L1306,284 L1299,284 L1298,283 L1298,268 Z M1222,267 L1220,268 L1220,280 L1219,281 L1210,268 L1207,268 L1207,285 L1209,285 L1209,273 L1210,272 L1217,282 L1220,285 L1222,285 Z M1135,267 L1132,268 L1128,272 L1128,281 L1134,286 L1139,286 L1143,283 L1143,277 L1137,277 L1137,278 L1141,278 L1142,279 L1141,282 L1139,284 L1134,284 L1130,280 L1129,277 L1130,273 L1134,269 L1139,269 L1142,271 L1141,268 L1139,267 Z M1084,267 L1078,270 L1076,273 L1076,280 L1079,284 L1084,286 L1088,286 L1092,283 L1094,279 L1094,274 L1090,268 Z M1044,267 L1042,268 L1042,274 L1041,275 L1033,275 L1032,274 L1032,268 L1030,268 L1031,271 L1031,274 L1030,275 L1030,280 L1031,282 L1030,285 L1032,285 L1032,278 L1033,277 L1041,277 L1042,278 L1042,285 L1044,285 Z M911,267 L908,268 L904,272 L903,274 L903,280 L906,284 L910,286 L915,286 L918,284 L918,283 L910,284 L905,278 L905,274 L910,269 L915,269 L917,271 L918,269 L914,267 Z M881,267 L880,268 L880,285 L881,285 L881,278 L882,277 L890,277 L891,278 L891,285 L893,286 L893,268 L891,268 L891,274 L890,275 L882,275 L881,274 Z M786,267 L784,268 L784,274 L783,275 L775,275 L774,274 L774,268 L772,268 L772,285 L774,286 L774,278 L775,277 L783,277 L784,278 L784,285 L786,285 Z M739,267 L734,269 L731,273 L731,281 L735,285 L743,286 L747,283 L747,277 L741,277 L741,278 L744,278 L745,279 L745,282 L742,284 L738,284 L733,280 L733,274 L736,270 L738,269 L742,269 L745,271 L746,269 L742,267 Z M721,267 L719,268 L719,279 L718,280 L714,276 L709,268 L706,268 L706,282 L707,285 L708,285 L708,273 L709,272 L714,278 L718,285 L720,286 L721,285 Z M684,267 L681,269 L678,275 L676,274 L672,268 L670,268 L676,277 L676,285 L678,286 L678,278 L684,269 Z M641,267 L639,268 L639,285 L641,285 Z M619,268 L619,285 L629,285 L629,284 L622,284 L621,283 L621,267 Z M539,267 L535,270 L535,274 L537,276 L542,278 L544,280 L544,282 L542,284 L538,284 L537,283 L535,283 L535,284 L538,286 L542,286 L545,284 L546,280 L543,276 L539,275 L536,272 L539,269 L542,269 L543,270 L545,270 L545,269 L542,267 Z M1000,167 L1001,166 L1048,166 L1049,167 L1052,167 L1059,171 L1062,174 L1065,181 L1064,192 L1057,200 L1050,203 L1045,203 L1044,204 L1030,204 L1029,203 L1007,203 L1006,204 L1004,203 L1003,204 L1000,202 Z M1278,146 L1284,146 L1295,150 L1305,161 L1307,167 L1307,171 L1308,172 L1307,185 L1303,194 L1293,203 L1284,206 L1272,205 L1264,201 L1257,193 L1253,182 L1253,171 L1254,170 L1255,164 L1258,158 L1268,149 L1273,147 L1277,147 Z M1159,146 L1171,147 L1177,150 L1186,159 L1189,166 L1189,171 L1190,172 L1190,181 L1189,182 L1189,186 L1185,194 L1177,202 L1167,206 L1154,205 L1146,201 L1140,195 L1139,192 L1137,190 L1135,184 L1135,168 L1138,160 L1146,151 L1151,148 L1158,147 Z M883,147 L889,146 L890,145 L902,145 L903,146 L906,146 L915,151 L919,155 L924,163 L925,169 L926,170 L926,181 L925,182 L924,189 L920,195 L915,200 L906,205 L903,205 L902,206 L890,206 L889,205 L883,204 L878,201 L870,193 L867,187 L865,174 L866,173 L866,168 L868,162 L871,157 L878,150 Z M742,163 L745,156 L751,149 L758,145 L764,144 L765,143 L775,143 L786,147 L790,150 L794,155 L797,162 L796,165 L743,165 Z M1552,120 L1562,143 L1563,148 L1569,161 L1573,174 L1572,175 L1531,175 L1530,172 L1532,169 L1533,164 L1536,159 L1537,154 L1539,151 L1539,149 L1541,146 L1545,134 L1548,129 L1550,122 Z M1275,120 L1274,121 L1265,122 L1251,128 L1245,132 L1234,144 L1230,151 L1230,153 L1226,162 L1226,166 L1225,167 L1225,187 L1226,188 L1227,195 L1232,206 L1237,213 L1247,222 L1255,227 L1257,227 L1260,229 L1267,230 L1268,231 L1272,231 L1273,232 L1288,232 L1289,231 L1294,231 L1298,229 L1301,229 L1309,225 L1315,221 L1326,210 L1333,197 L1334,191 L1335,190 L1335,185 L1336,184 L1336,168 L1335,167 L1335,163 L1334,162 L1333,156 L1327,144 L1324,140 L1313,130 L1297,122 L1288,121 L1287,120 Z M1156,120 L1155,121 L1146,122 L1132,128 L1126,132 L1118,140 L1114,146 L1108,159 L1107,169 L1106,170 L1106,184 L1107,185 L1108,194 L1113,205 L1117,211 L1127,221 L1140,228 L1146,230 L1155,231 L1156,232 L1171,232 L1172,231 L1180,230 L1191,225 L1197,221 L1208,210 L1215,197 L1217,191 L1217,187 L1218,186 L1218,167 L1217,166 L1217,162 L1214,153 L1211,147 L1206,140 L1199,133 L1192,128 L1179,122 L1171,121 L1170,120 Z M757,121 L756,122 L753,122 L747,124 L734,131 L726,138 L718,149 L712,167 L712,186 L713,187 L714,194 L720,207 L723,211 L732,220 L746,228 L752,230 L755,230 L756,231 L760,231 L761,232 L782,232 L783,231 L787,231 L788,230 L791,230 L797,228 L808,222 L813,217 L814,217 L821,209 L821,207 L797,197 L791,203 L781,208 L777,208 L776,209 L763,208 L754,204 L746,197 L743,192 L742,186 L743,185 L825,185 L826,184 L826,167 L825,166 L825,162 L822,153 L814,140 L806,132 L790,123 L784,121 L779,121 L778,120 L763,120 L762,121 Z M373,110 L375,111 L375,236 L374,237 L368,233 L347,212 L347,211 L311,172 L357,126 L358,126 L358,125 L360,124 Z M1000,109 L1001,108 L1047,108 L1052,110 L1059,118 L1059,122 L1060,123 L1059,131 L1052,139 L1046,141 L1001,141 L1000,140 Z M1534,87 L1530,96 L1530,98 L1525,108 L1525,110 L1523,113 L1523,115 L1521,118 L1521,120 L1519,123 L1519,125 L1516,130 L1515,135 L1509,147 L1509,149 L1504,159 L1504,161 L1502,164 L1498,176 L1492,188 L1490,195 L1487,200 L1487,202 L1485,205 L1485,207 L1475,230 L1507,230 L1509,227 L1509,225 L1511,222 L1511,220 L1513,217 L1517,205 L1520,201 L1568,201 L1569,200 L1570,201 L1583,201 L1584,202 L1588,214 L1595,230 L1621,230 L1622,229 L1626,229 L1619,213 L1618,208 L1616,205 L1612,193 L1610,190 L1610,188 L1608,185 L1608,183 L1606,180 L1606,178 L1603,173 L1603,171 L1597,158 L1596,153 L1586,130 L1585,125 L1577,107 L1576,102 L1574,99 L1570,87 Z M1636,85 L1636,227 L1635,229 L1637,230 L1666,229 L1666,85 Z M536,85 L536,89 L537,90 L536,92 L536,103 L537,104 L537,116 L536,117 L536,126 L537,127 L537,131 L536,132 L536,143 L537,144 L536,146 L536,150 L537,151 L537,158 L536,159 L536,175 L537,176 L537,189 L536,190 L537,206 L536,207 L536,212 L537,213 L537,227 L536,229 L537,230 L566,230 L566,135 L567,134 L569,136 L579,156 L586,167 L586,169 L588,171 L596,188 L598,190 L607,208 L628,208 L640,185 L642,183 L654,160 L656,158 L658,153 L660,151 L662,146 L669,135 L670,136 L670,156 L671,157 L670,159 L670,199 L671,200 L670,201 L670,229 L671,230 L700,230 L701,229 L701,86 L700,85 L664,85 L658,96 L656,98 L646,118 L640,127 L637,134 L635,136 L631,145 L625,154 L621,163 L618,166 L616,164 L609,150 L607,148 L601,135 L599,133 L595,124 L593,122 L574,85 Z M969,83 L969,229 L970,230 L1048,230 L1049,229 L1064,228 L1082,219 L1092,208 L1095,202 L1096,195 L1097,194 L1097,180 L1096,179 L1095,173 L1092,167 L1088,162 L1083,158 L1071,152 L1078,148 L1085,141 L1088,136 L1089,130 L1090,129 L1090,114 L1089,113 L1088,107 L1083,99 L1077,93 L1071,89 L1062,85 L1059,85 L1054,83 L1046,83 L1045,82 L990,82 L989,83 Z M955,81 L927,81 L926,82 L926,133 L925,134 L916,126 L902,120 L881,120 L880,121 L876,121 L870,123 L862,127 L856,131 L846,142 L840,153 L837,162 L837,167 L836,168 L836,184 L837,185 L837,190 L840,199 L844,207 L851,216 L858,222 L871,229 L877,230 L878,231 L882,231 L883,232 L899,232 L900,231 L904,231 L910,229 L916,226 L925,218 L927,220 L927,230 L955,230 L955,226 L956,225 L956,82 Z M1343,78 L1343,229 L1344,230 L1372,230 L1372,195 L1378,189 L1380,189 L1408,225 L1413,230 L1448,230 L1441,220 L1436,215 L1432,209 L1427,204 L1415,188 L1402,173 L1402,171 L1404,168 L1445,125 L1445,124 L1448,122 L1448,121 L1411,121 L1373,163 L1372,162 L1372,78 Z M461,84 L454,70 L445,56 L438,47 L421,30 L409,21 L395,14 L389,13 L388,12 L384,12 L383,11 L374,11 L373,10 L356,12 L347,15 L333,23 L324,30 L298,55 L297,55 L249,103 L241,97 L232,88 L222,81 L206,72 L194,68 L189,68 L188,67 L169,67 L168,68 L163,68 L155,71 L152,71 L133,81 L119,92 L107,104 L103,110 L61,160 L28,202 L21,213 L15,226 L15,230 L14,231 L14,250 L15,251 L15,255 L20,266 L24,272 L32,280 L40,285 L49,288 L68,288 L77,285 L88,278 L100,266 L100,265 L125,238 L125,237 L171,186 L171,185 L184,172 L190,170 L221,202 L221,203 L249,232 L249,233 L282,266 L283,266 L294,276 L312,288 L325,294 L334,297 L337,297 L338,298 L343,298 L344,299 L370,299 L371,298 L376,298 L377,297 L384,296 L390,293 L395,292 L407,286 L418,278 L423,273 L424,273 L438,258 L445,249 L455,233 L461,221 L461,219 L463,216 L464,211 L467,205 L467,202 L470,193 L470,189 L471,188 L472,176 L473,175 L474,148 L473,147 L473,132 L472,131 L472,124 L471,123 L470,113 L469,112 L466,97 L461,86 Z"/></svg>